# xmcd
#
# Track frame offsets:
#	150
#	14097
#	25722
#	36695
#	49310
#	61430
#	75335
#	89192
#	101177
#	116330
#	128272
#	139932
#	152745
#	166437
#	179845
#	190797
#	202402
#	210717
#	220642
#	233127
#	247400
#	264480
#	273380
#	287280
#	300872
#
# Disc length: 4164 seconds
#
# Revision: 3
# Processed by: cddbd v1.5PL3 Copyright (c) Steve Scherf et al.
# Submitted via: audiograbber 1.80
#
DISCID=77104219
DTITLE=Willie Nelson - Face Of A Fighter
DYEAR=1900
DGENRE=
TTITLE0=A Moment Isn't Very Long
TTITLE1=Some Other Time
TTITLE2=Blame It On The Line
TTITLE3=Shelter Of Your Arms
TTITLE4=End Of Understanding
TTITLE5=Will You Remember Mine
TTITLE6=Everything But On You
TTITLE7=I Hope So
TTITLE8=Face Of A Fighter
TTITLE9=Is There Something On Your MInd
TTITLE10=Follow Me Around
TTITLE11=Any Old Arms Won't Do
TTITLE12=You'll Always Have Someone
TTITLE13=I Just Don't Understand
TTITLE14=I Feel Sorry For Him
TTITLE15=Suffering In Silence
TTITLE16=You Wouldn't Croww The Street To Say Goodbye
TTITLE17=Ashamed
TTITLE18=I Can't Find The Time
TTITLE19=So Mucht To Do
TTITLE20=I Let My Mind Wonder
TTITLE21=Why Are You Picking On Me
TTITLE22=Home Is Where You're Happy
TTITLE23=Undo The Wrong
TTITLE24=December Days
EXTD=
EXTT0=
EXTT1=
EXTT2=
EXTT3=
EXTT4=
EXTT5=
EXTT6=
EXTT7=
EXTT8=
EXTT9=
EXTT10=
EXTT11=
EXTT12=
EXTT13=
EXTT14=
EXTT15=
EXTT16=
EXTT17=
EXTT18=
EXTT19=
EXTT20=
EXTT21=
EXTT22=
EXTT23=
EXTT24=
PLAYORDER=
